<svg id="icon_sns_yt.svg" xmlns="http://www.w3.org/2000/svg" viewBox="0 0 78 54.938">
  <defs>
    <style>
      .cls-1 {
        fill: red;
      }

      .cls-1, .cls-2 {
        fill-rule: evenodd;
      }

      .cls-2 {
        fill: #fff;
      }
    </style>
  </defs>
  <path id="シェイプ_20" data-name="シェイプ 20" class="cls-1" d="M665.372,520.1a9.8,9.8,0,0,0-6.9-6.941c-6.083-1.64-30.475-1.64-30.475-1.64s-24.392,0-30.475,1.64a9.8,9.8,0,0,0-6.9,6.941C589,526.226,589,539,589,539s0,12.774,1.63,18.9a9.8,9.8,0,0,0,6.9,6.941c6.083,1.64,30.475,1.64,30.475,1.64s24.392,0,30.475-1.64a9.8,9.8,0,0,0,6.9-6.941C667,551.774,667,539,667,539S667,526.226,665.372,520.1Z" transform="translate(-589 -511.531)"/>
  <path id="シェイプ_20_のコピー" data-name="シェイプ 20 のコピー" class="cls-2" d="M620.022,550.6L640.41,539l-20.388-11.6v23.2Z" transform="translate(-589 -511.531)"/>
</svg>
