<svg id="icon_sns_tw.svg" xmlns="http://www.w3.org/2000/svg" viewBox="0 0 67.219 54.406">
  <defs>
    <style>
      .cls-1 {
        fill: #1da1f2;
        fill-rule: evenodd;
      }
    </style>
  </defs>
  <path id="シェイプ_13_のコピー" data-name="シェイプ 13 のコピー" class="cls-1" d="M150.209,518.534a27.625,27.625,0,0,1-7.92,2.163,13.772,13.772,0,0,0,6.063-7.6,27.621,27.621,0,0,1-8.753,3.335,13.787,13.787,0,0,0-23.5,12.529,39.19,39.19,0,0,1-28.422-14.355,13.725,13.725,0,0,0,4.266,18.342A13.769,13.769,0,0,1,85.7,531.23V531.4a13.761,13.761,0,0,0,11.06,13.47,13.8,13.8,0,0,1-6.227.236,13.8,13.8,0,0,0,12.879,9.541,27.728,27.728,0,0,1-17.126,5.881A28.766,28.766,0,0,1,83,560.339a39.159,39.159,0,0,0,21.141,6.169c25.363,0,39.232-20.929,39.232-39.085,0-.593-0.015-1.186-0.038-1.78A28.023,28.023,0,0,0,150.209,518.534Z" transform="translate(-83 -512.094)"/>
</svg>
