<svg id="icon_sns_fb.svg" xmlns="http://www.w3.org/2000/svg" viewBox="0 0 60 60">
  <defs>
    <style>
      .cls-1 {
        fill: #1877f2;
      }

      .cls-1, .cls-2 {
        fill-rule: evenodd;
      }

      .cls-2 {
        fill: #fff;
      }
    </style>
  </defs>
  <path id="シェイプ_19" data-name="シェイプ 19" class="cls-1" d="M317,540a30,30,0,1,1-30-30A30,30,0,0,1,317,540Z" transform="translate(-257 -510)"/>
  <path id="シェイプ_19_のコピー" data-name="シェイプ 19 のコピー" class="cls-2" d="M298.679,548.673l1.33-8.673h-8.321v-5.628c0-2.373,1.162-4.686,4.889-4.686h3.784V522.3a46.146,46.146,0,0,0-6.716-.586c-6.854,0-11.333,4.153-11.333,11.673V540h-7.618v8.673h7.618v20.966a30.371,30.371,0,0,0,9.376,0V548.673h6.991Z" transform="translate(-257 -510)"/>
</svg>
